<svg xmlns="http://www.w3.org/2000/svg" viewBox="0 0 360.4 99.45"><defs><style>.cls-1{fill:#100e0f;}</style></defs><title>Asset 1</title><g id="Layer_2" data-name="Layer 2"><g id="Layer_1-2" data-name="Layer 1"><path class="cls-1" d="M69.82,42.57H39.65A1.41,1.41,0,0,0,38.24,44V59.15a1.42,1.42,0,0,0,1.41,1.42H51.24V79.34s-2.67.92-10.05.92c-8.7,0-20.86-3.22-20.86-30.35S33,19.22,44.88,19.22c10.28,0,14.72,1.83,17.54,2.72a1.44,1.44,0,0,0,1.7-1.42l3.4-14.6A1.33,1.33,0,0,0,67,4.8C65.83,4,58.84,0,41.19,0,20.86,0,0,8.78,0,51S23.88,99.45,44,99.45c16.67,0,26.78-7.22,26.78-7.22a1.26,1.26,0,0,0,.46-1.1V44A1.42,1.42,0,0,0,69.82,42.57Z"/><path class="cls-1" d="M225.24,6a1.43,1.43,0,0,0-1.43-1.42H207.67A1.42,1.42,0,0,0,206.24,6v32.6h-27V6a1.41,1.41,0,0,0-1.42-1.42H160.65A1.41,1.41,0,0,0,159.24,6V95.14a1.42,1.42,0,0,0,1.41,1.43h17.18a1.41,1.41,0,0,0,1.41-1.41V56.57h27l-.05,38.57a1.4,1.4,0,0,0,1.35,1.43h16.35a1.39,1.39,0,0,0,1.35-1.43Z"/><path class="cls-1" d="M101.68,17.52a11,11,0,1,0-11,11.1A11,11,0,0,0,101.68,17.52Z"/><path class="cls-1" d="M100.24,76.28V35a1.43,1.43,0,0,0-1.42-1.42h-17a1.58,1.58,0,0,0-1.58,1.58V94.31c0,1.74,1.08,2.26,2.49,2.26h15.4c1.69,0,2.11-.83,2.11-2.29Z"/><path class="cls-1" d="M290.82,33.57H273.64a1.41,1.41,0,0,0-1.4,1.42V78.72a18.93,18.93,0,0,1-10.33,3.14c-6.06,0-7.67-2.76-7.67-8.73V35a1.41,1.41,0,0,0-1.4-1.42H235.65A1.42,1.42,0,0,0,234.24,35V76.17c0,17.81,9.91,22.16,23.55,22.16C269,98.33,278,92.15,278,92.15a36.57,36.57,0,0,0,.62,3.64,1.5,1.5,0,0,0,1.25.78l10.95,0a1.43,1.43,0,0,0,1.42-1.43V35A1.41,1.41,0,0,0,290.82,33.57Z"/><path class="cls-1" d="M336.45,31.89a32,32,0,0,0-16.21,4.29V6a1.42,1.42,0,0,0-1.42-1.42H301.65A1.41,1.41,0,0,0,300.24,6V95.14a1.42,1.42,0,0,0,1.41,1.43h11.92a1.43,1.43,0,0,0,1.24-.76,27.09,27.09,0,0,0,.72-4.11s7,6.62,20.32,6.62c15.6,0,24.55-7.88,24.55-35.36S346.11,31.89,336.45,31.89ZM330.08,82a20.3,20.3,0,0,1-9.84-2.84V50.89A22.54,22.54,0,0,1,329,48.06c6.09-.55,12,1.29,12,15.82C340.94,79.2,338.29,82.22,330.08,82Z"/><path class="cls-1" d="M149.82,33.57H136.24l0-17c0-.64-.33-1-1.08-1h-16.9c-.65,0-1,.29-1,.93V33.74s-8.45,2.08-9,2.25a1.4,1.4,0,0,0-1,1.34V48.14a1.43,1.43,0,0,0,1.42,1.43h8.58V76c0,19.6,13.76,21.52,23,21.52a39,39,0,0,0,10.16-1.67,1.32,1.32,0,0,0,.8-1.28V82.9a1.4,1.4,0,0,0-1.37-1.39c-.72,0-2.58.3-4.48.3-6.1,0-8.16-2.84-8.16-6.51V50.57h12.59a1.41,1.41,0,0,0,1.41-1.41V35A1.42,1.42,0,0,0,149.82,33.57Z"/></g></g></svg>